<svg width="25" height="24" viewBox="0 0 25 24" fill="none" xmlns="http://www.w3.org/2000/svg">
<g clip-path="url(#clip0_4_36)">
<path d="M12.5 0C5.9 0 0.5 5.4 0.5 12C0.5 18.6 5.9 24 12.5 24C19.1 24 24.5 18.6 24.5 12C24.5 5.4 19.16 0 12.5 0ZM18.021 17.34C17.781 17.699 17.361 17.82 17 17.58C14.18 15.84 10.64 15.479 6.439 16.439C6.021 16.561 5.66 16.26 5.54 15.9C5.42 15.479 5.72 15.12 6.08 15C10.64 13.979 14.6 14.4 17.72 16.32C18.14 16.5 18.199 16.979 18.021 17.34ZM19.461 14.04C19.16 14.46 18.62 14.64 18.199 14.34C14.96 12.36 10.04 11.76 6.26 12.96C5.781 13.08 5.24 12.84 5.12 12.36C5 11.88 5.24 11.339 5.72 11.219C10.1 9.9 15.5 10.561 19.22 12.84C19.581 13.021 19.76 13.62 19.461 14.04ZM19.581 10.68C15.74 8.4 9.32 8.16 5.66 9.301C5.06 9.48 4.46 9.12 4.28 8.58C4.1 7.979 4.46 7.38 5 7.199C9.26 5.939 16.28 6.179 20.721 8.82C21.26 9.12 21.44 9.84 21.14 10.38C20.841 10.801 20.12 10.979 19.581 10.68Z" fill="#1ED760"/>
</g>
<defs>
<clipPath id="clip0_4_36">
<rect width="24" height="24" fill="white" transform="translate(0.5)"/>
</clipPath>
</defs>
</svg>
